<?xml version="1.0" encoding="UTF-8" standalone="no"?>
<svg
   version="1.1"
   id="svg8"
   sodipodi:docname="matrixs.svg"
   inkscape:version="1.3.2 (1:1.3.2+202404261509+091e20ef0f)"
   xmlns:inkscape="http://www.inkscape.org/namespaces/inkscape"
   xmlns:sodipodi="http://sodipodi.sourceforge.net/DTD/sodipodi-0.dtd"
   xmlns="http://www.w3.org/2000/svg"
   xmlns:svg="http://www.w3.org/2000/svg">
  <sodipodi:namedview
     id="namedview10"
     pagecolor="#ffffff"
     bordercolor="#000000"
     borderopacity="0.25"
     inkscape:showpageshadow="2"
     inkscape:pageopacity="0.0"
     inkscape:pagecheckerboard="0"
     inkscape:deskcolor="#d1d1d1"
     showgrid="false"
     inkscape:zoom="3.0499873"
     inkscape:cx="10.819717"
     inkscape:cy="12.950874"
     inkscape:window-width="1920"
     inkscape:window-height="1000"
     inkscape:window-x="1920"
     inkscape:window-y="0"
     inkscape:window-maximized="1"
     inkscape:current-layer="svg8" />
  <defs
     id="defs2" />
  <path
     d="m 18,-28 v 6 h 2 c 0.566666,0 1.066667,0.217058 1.5,0.650391 0.333333,0.366666 0.5,0.816276 0.5,1.349609 v 40 l -0.199219,0.949219 -0.351562,0.5 L 21.400391,21.5 20.949219,21.800781 20,22 h -2 v 6 h 2 c 2.166665,0 4.032944,-0.732554 5.599609,-2.199219 l 0.09961,-0.101562 0.101562,-0.09961 C 27.267446,24.032944 28,22.166665 28,20 v -40 c 0,-2.266664 -0.750002,-4.132944 -2.25,-5.599609 C 24.150002,-27.199608 22.233331,-28 20,-28 Z"
     style="fill:#ffffff"
     id="path2" />
  <path
     d="m -18,28 v -6 h -2 c -0.566666,0 -1.016276,-0.166667 -1.349609,-0.5 C -21.782942,21.066667 -22,20.566666 -22,20 v -40 c 0,-0.5 0.184115,-0.934115 0.550781,-1.300781 h 0.04883 l 0.09961,-0.09961 v -0.04883 C -20.934115,-21.815885 -20.5,-22 -20,-22 h 2 v -6 h -2 c -2.199998,0 -4.050783,0.782944 -5.550781,2.349609 l -0.04883,0.05078 -0.05078,0.04883 C -27.217056,-24.050783 -28,-22.199998 -28,-20 v 40 c 0,2.233331 0.800392,4.150002 2.400391,5.75 C -24.099611,27.249998 -22.233331,28 -20,28 Z"
     style="fill:#ffffff"
     id="path1" />
  <g
     id="text1"
     style="font-size:24px;fill:#ffffff;stroke:#f9f9f9;stroke-width:5;stroke-linecap:round;stroke-dasharray:none"
     aria-label=". . .&#10;. . .&#10;. . .">
    <g
       id="path3"
       style="stroke-width:5;stroke-dasharray:none">
      <path
         style="color:#000000;stroke:none;stroke-linecap:butt;stroke-width:5;stroke-dasharray:none"
         d="m -14.159997,-12.012 q 0,-0.888 0.432,-1.248 0.432,-0.36 1.032,-0.36 0.624,0 1.056,0.36 0.456,0.36 0.456,1.248 0,0.864 -0.456,1.248 -0.432,0.384 -1.056,0.384 -0.6,0 -1.032,-0.384 -0.432,-0.384 -0.432,-1.248 z m 12.6719974,0 q 0,-0.888 0.432,-1.248 0.432,-0.36 1.032,-0.36 0.624,0 1.056,0.36 0.456,0.36 0.456,1.248 0,0.864 -0.456,1.248 -0.432,0.384 -1.056,0.384 -0.6,0 -1.032,-0.384 -0.432,-0.384 -0.432,-1.248 z m 12.6719966,0 q 0,-0.888 0.432,-1.248 0.432,-0.36 1.032,-0.36 0.624,0 1.056,0.36 0.456,0.36 0.456,1.248 0,0.864 -0.456,1.248 -0.432,0.384 -1.056,0.384 -0.6,0 -1.032,-0.384 -0.432,-0.384 -0.432,-1.248 z"
         id="path6" />
      <path
         style="color:#000000;fill:#f9f9f9;stroke:none;stroke-linecap:butt;stroke-width:5;stroke-dasharray:none"
         d="m -12.695313,-16.119141 c -0.899999,0 -1.907528,0.33505 -2.632812,0.939453 -1.064616,0.887181 -1.332031,2.170565 -1.332031,3.167969 0,0.992666 0.287621,2.242643 1.271484,3.1171877 0.717545,0.6378177 1.760027,1.0136719 2.693359,1.0136719 0.915987,0 1.948466,-0.3560567 2.681641,-0.9921875 0.9937391,-0.8512266 1.3300782,-2.1301661 1.3300782,-3.1386721 1e-7,-1.012388 -0.3232464,-2.327511 -1.3925782,-3.1875 -0.739774,-0.601554 -1.735311,-0.919922 -2.619141,-0.919922 z m 12.6718755,0 c -0.8999991,0 -1.9075288,0.33505 -2.6328125,0.939453 -1.0646161,0.887181 -1.3320313,2.170565 -1.3320313,3.167969 0,0.992666 0.2876216,2.242643 1.2714844,3.1171877 0.7175449,0.6378177 1.760027,1.0136719 2.6933594,1.0136719 0.91597136,0 1.9484677,-0.356076 2.6816406,-0.9921875 0.993739,-0.8512266 1.3300781,-2.1301661 1.3300782,-3.1386721 -1e-7,-1.011653 -0.3212136,-2.325517 -1.3886719,-3.185547 -0.7401043,-0.603356 -1.73787058,-0.921875 -2.6230469,-0.921875 z m 12.6718755,0 c -0.9,0 -1.907529,0.33505 -2.632813,0.939453 -1.0646161,0.887181 -1.3320312,2.170565 -1.3320312,3.167969 0,0.992666 0.2876215,2.242643 1.2714843,3.1171877 0.7175449,0.6378177 1.7600269,1.0136719 2.6933599,1.0136719 0.915971,0 1.948467,-0.356076 2.68164,-0.9921875 0.993739,-0.8512266 1.330078,-2.1301661 1.330078,-3.1386721 0,-1.011653 -0.321213,-2.325517 -1.388672,-3.185547 -0.740104,-0.603356 -1.73787,-0.921875 -2.623046,-0.921875 z m -25.343751,3.238282 c 0.133334,0 0.487361,0.122228 0.628907,0.248046 0.407863,0.362546 0.40625,0.780427 0.40625,0.621094 0,-0.186594 0.02182,0.264695 -0.466797,0.671875 -0.149284,0.124404 -0.46836,0.220703 -0.56836,0.220703 -0.06129,0 -0.34403,-0.08347 -0.515625,-0.208984 -0.421574,-0.371445 -0.472656,-0.840506 -0.472656,-0.683594 0,0.130139 0.06018,-0.301727 0.414063,-0.634765 0.168149,-0.130125 0.482444,-0.234375 0.574218,-0.234375 z m 12.6718755,0 c 0.1333332,0 0.48736081,0.122228 0.62890625,0.248046 0.40786345,0.362546 0.40624995,0.780427 0.40624995,0.621094 0,-0.186594 0.02182,0.264695 -0.46679683,0.671875 -0.14928427,0.124404 -0.46835947,0.220703 -0.56835937,0.220703 -0.06129303,0 -0.34403025,-0.08347 -0.515625,-0.208984 -0.42157459,-0.371445 -0.4726562,-0.840506 -0.4726562,-0.683594 0,0.130139 0.0601844,-0.301727 0.41406245,-0.634765 0.16814876,-0.130125 0.48244429,-0.234375 0.57421875,-0.234375 z m 12.6718755,0 c 0.133333,0 0.48736,0.122228 0.628906,0.248046 0.407863,0.362546 0.40625,0.780427 0.40625,0.621094 0,-0.186594 0.02182,0.264695 -0.466797,0.671875 -0.149284,0.124404 -0.46836,0.220703 -0.568359,0.220703 -0.06129,0 -0.344031,-0.08347 -0.515625,-0.208984 -0.421575,-0.371445 -0.472657,-0.840506 -0.472657,-0.683594 0,0.130139 0.06018,-0.301727 0.414063,-0.634765 0.168149,-0.130125 0.482444,-0.234375 0.574219,-0.234375 z"
         id="path7" />
    </g>
    <g
       id="path4"
       style="stroke-width:5;stroke-dasharray:none">
      <path
         style="color:#000000;stroke:none;stroke-linecap:butt;stroke-width:5;stroke-dasharray:none"
         d="m -14.159997,-0.0119996 q 0,-0.888 0.432,-1.248 0.432,-0.36 1.032,-0.36 0.624,0 1.056,0.36 0.456,0.36 0.456,1.248 0,0.864 -0.456,1.248 -0.432,0.384 -1.056,0.384 -0.6,0 -1.032,-0.384 -0.432,-0.384 -0.432,-1.248 z m 12.6719974,0 q 0,-0.888 0.432,-1.248 0.432,-0.36 1.032,-0.36 0.624,0 1.056,0.36 0.456,0.36 0.456,1.248 0,0.864 -0.456,1.248 -0.432,0.384 -1.056,0.384 -0.6,0 -1.032,-0.384 -0.432,-0.384 -0.432,-1.248 z m 12.6719966,0 q 0,-0.888 0.432,-1.248 0.432,-0.36 1.032,-0.36 0.624,0 1.056,0.36 0.456,0.36 0.456,1.248 0,0.864 -0.456,1.248 -0.432,0.384 -1.056,0.384 -0.6,0 -1.032,-0.384 -0.432,-0.384 -0.432,-1.248 z"
         id="path8" />
      <path
         style="color:#000000;fill:#f9f9f9;stroke:none;stroke-linecap:butt;stroke-width:5;stroke-dasharray:none"
         d="m -12.695313,-4.1191406 c -0.899999,0 -1.907528,0.33505 -2.632812,0.9394531 -1.064616,0.8871801 -1.332031,2.1705643 -1.332031,3.16796875 0,0.99266567 0.287621,2.24264275 1.271484,3.11718755 0.717545,0.6378176 1.760027,1.0136718 2.693359,1.0136718 0.915987,0 1.948466,-0.3560567 2.681641,-0.9921875 0.9937391,-0.8512266 1.3300783,-2.13016583 1.3300782,-3.13867185 1e-7,-1.01238835 -0.3232464,-2.32751165 -1.3925782,-3.18750005 -0.739774,-0.6015544 -1.735311,-0.9199218 -2.619141,-0.9199218 z m 12.6718755,0 c -0.8999991,0 -1.9075288,0.33505 -2.6328125,0.9394531 -1.0646161,0.8871801 -1.3320313,2.1705643 -1.3320313,3.16796875 0,0.99266567 0.2876216,2.24264275 1.2714844,3.11718755 0.7175449,0.6378176 1.760027,1.0136718 2.6933594,1.0136718 0.91597136,0 1.9484677,-0.356076 2.6816406,-0.9921875 0.993739,-0.8512266 1.3300782,-2.13016583 1.3300782,-3.13867185 -1e-7,-1.01165315 -0.3212136,-2.32551775 -1.3886719,-3.18554685 -0.7401043,-0.6033568 -1.73787058,-0.921875 -2.6230469,-0.921875 z m 12.6718755,0 c -0.9,0 -1.907529,0.33505 -2.632813,0.9394531 -1.0646161,0.8871801 -1.3320313,2.1705643 -1.3320312,3.16796875 0,0.99266567 0.2876215,2.24264275 1.2714843,3.11718755 0.7175449,0.6378176 1.7600269,1.0136718 2.6933599,1.0136718 0.915971,0 1.948467,-0.356076 2.68164,-0.9921875 0.993739,-0.8512266 1.330078,-2.13016583 1.330078,-3.13867185 0,-1.01165315 -0.321213,-2.32551775 -1.388672,-3.18554685 -0.740104,-0.6033568 -1.73787,-0.921875 -2.623046,-0.921875 z m -25.343751,3.23828122 c 0.133334,10e-9 0.487361,0.12222871 0.628907,0.24804688 0.407863,0.36254528 0.40625,0.78042692 0.40625,0.62109375 0,-0.18659441 0.02182,0.26469446 -0.466797,0.671875 -0.149284,0.12440356 -0.46836,0.22070313 -0.56836,0.22070313 -0.06129,0 -0.34403,-0.0834671 -0.515625,-0.20898438 -0.421574,-0.3714449 -0.472656,-0.84050572 -0.472656,-0.68359375 0,0.13013913 0.06018,-0.30172697 0.414063,-0.63476562 0.168149,-0.13012424 0.482444,-0.234375 0.574218,-0.23437501 z m 12.6718755,0 c 0.1333332,10e-9 0.48736081,0.12222871 0.62890625,0.24804688 0.40786345,0.36254528 0.40624995,0.78042692 0.40624995,0.62109375 0,-0.18659441 0.02182,0.26469446 -0.46679683,0.671875 C 0.3956376,0.78455981 0.0765624,0.88085938 -0.0234375,0.88085938 c -0.06129303,0 -0.34403025,-0.0834671 -0.515625,-0.20898438 -0.42157459,-0.3714449 -0.4726562,-0.84050572 -0.4726562,-0.68359375 0,0.13013913 0.0601844,-0.30172697 0.41406245,-0.63476562 0.16814876,-0.13012424 0.48244429,-0.234375 0.57421875,-0.23437501 z m 12.6718755,0 c 0.133333,10e-9 0.48736,0.12222871 0.628906,0.24804688 0.407863,0.36254528 0.40625,0.78042692 0.40625,0.62109375 0,-0.18659441 0.02182,0.26469446 -0.466797,0.671875 -0.149284,0.12440356 -0.46836,0.22070312 -0.568359,0.22070313 -0.06129,0 -0.344031,-0.0834671 -0.515625,-0.20898438 -0.421575,-0.3714449 -0.472657,-0.84050572 -0.472657,-0.68359375 0,0.13013913 0.06018,-0.30172697 0.414063,-0.63476562 0.168149,-0.13012424 0.482444,-0.234375 0.574219,-0.23437501 z"
         id="path9" />
    </g>
    <g
       id="path5"
       style="stroke-width:5;stroke-dasharray:none">
      <path
         style="color:#000000;stroke:none;stroke-linecap:butt;stroke-width:5;stroke-dasharray:none"
         d="m -14.159997,11.988 q 0,-0.888 0.432,-1.248 0.432,-0.36 1.032,-0.36 0.624,0 1.056,0.36 0.456,0.36 0.456,1.248 0,0.864 -0.456,1.248 -0.432,0.384 -1.056,0.384 -0.6,0 -1.032,-0.384 -0.432,-0.384 -0.432,-1.248 z m 12.6719974,0 q 0,-0.888 0.432,-1.248 0.432,-0.36 1.032,-0.36 0.624,0 1.056,0.36 0.456,0.36 0.456,1.248 0,0.864 -0.456,1.248 -0.432,0.384 -1.056,0.384 -0.6,0 -1.032,-0.384 -0.432,-0.384 -0.432,-1.248 z m 12.6719966,0 q 0,-0.888 0.432,-1.248 0.432,-0.36 1.032,-0.36 0.624,0 1.056,0.36 0.456,0.36 0.456,1.248 0,0.864 -0.456,1.248 -0.432,0.384 -1.056,0.384 -0.6,0 -1.032,-0.384 -0.432,-0.384 -0.432,-1.248 z"
         id="path10" />
      <path
         style="color:#000000;fill:#f9f9f9;stroke:none;stroke-linecap:butt;stroke-width:5;stroke-dasharray:none"
         d="m -12.695313,7.8808594 c -0.899999,0 -1.907528,0.33505 -2.632812,0.9394531 -1.064616,0.8871801 -1.332031,2.1705645 -1.332031,3.1679685 0,0.992666 0.287621,2.242643 1.271484,3.117188 0.717545,0.637817 1.760027,1.013672 2.693359,1.013672 0.915987,0 1.948466,-0.356057 2.681641,-0.992188 0.9937391,-0.851227 1.3300782,-2.130166 1.3300782,-3.138672 1e-7,-1.012388 -0.3232464,-2.3275114 -1.3925782,-3.1874997 -0.739774,-0.6015545 -1.735311,-0.9199219 -2.619141,-0.9199219 z m 12.6718755,0 c -0.8999991,0 -1.9075288,0.33505 -2.6328125,0.9394531 -1.0646161,0.8871801 -1.3320313,2.1705645 -1.3320313,3.1679685 0,0.992666 0.2876216,2.242643 1.2714844,3.117188 0.7175449,0.637817 1.760027,1.013672 2.6933594,1.013672 0.91597136,0 1.9484677,-0.356076 2.6816406,-0.992188 0.993739,-0.851227 1.3300781,-2.130166 1.3300782,-3.138672 C 3.9882812,10.976628 3.6670677,9.6627635 2.5996094,8.8027344 1.8595051,8.1993776 0.86173882,7.8808594 -0.0234375,7.8808594 Z m 12.6718755,0 c -0.9,0 -1.907529,0.33505 -2.632813,0.9394531 -1.0646161,0.8871801 -1.3320312,2.1705645 -1.3320312,3.1679685 0,0.992666 0.2876215,2.242643 1.2714843,3.117188 0.7175449,0.637817 1.7600269,1.013672 2.6933599,1.013672 0.915971,0 1.948467,-0.356076 2.68164,-0.992188 0.993739,-0.851227 1.330078,-2.130166 1.330078,-3.138672 0,-1.011653 -0.321213,-2.3255175 -1.388672,-3.1855466 -0.740104,-0.6033568 -1.73787,-0.921875 -2.623046,-0.921875 z m -25.343751,3.2382816 c 0.133334,0 0.487361,0.122228 0.628907,0.248047 0.407863,0.362545 0.40625,0.780426 0.40625,0.621093 0,-0.186594 0.02182,0.264695 -0.466797,0.671875 -0.149284,0.124404 -0.46836,0.220703 -0.56836,0.220703 -0.06129,0 -0.34403,-0.08347 -0.515625,-0.208984 -0.421574,-0.371445 -0.472656,-0.840506 -0.472656,-0.683594 0,0.130139 0.06018,-0.301727 0.414063,-0.634765 0.168149,-0.130125 0.482444,-0.234375 0.574218,-0.234375 z m 12.6718755,0 c 0.1333332,0 0.48736081,0.122228 0.62890625,0.248047 0.40786345,0.362545 0.40624995,0.780426 0.40624995,0.621093 0,-0.186594 0.02182,0.264695 -0.46679683,0.671875 -0.14928427,0.124404 -0.46835947,0.220703 -0.56835937,0.220703 -0.06129303,0 -0.34403025,-0.08347 -0.515625,-0.208984 -0.42157459,-0.371445 -0.4726562,-0.840506 -0.4726562,-0.683594 0,0.130139 0.0601844,-0.301727 0.41406245,-0.634765 0.16814876,-0.130125 0.48244429,-0.234375 0.57421875,-0.234375 z m 12.6718755,0 c 0.133333,0 0.48736,0.122228 0.628906,0.248047 0.407863,0.362545 0.40625,0.780426 0.40625,0.621093 0,-0.186594 0.02182,0.264695 -0.466797,0.671875 -0.149284,0.124404 -0.46836,0.220703 -0.568359,0.220703 -0.06129,0 -0.344031,-0.08347 -0.515625,-0.208984 -0.421575,-0.371445 -0.472657,-0.840506 -0.472657,-0.683594 0,0.130139 0.06018,-0.301727 0.414063,-0.634765 0.168149,-0.130125 0.482444,-0.234375 0.574219,-0.234375 z"
         id="path11" />
    </g>
  </g>
</svg>
