<?xml version="1.0" encoding="UTF-8" standalone="no"?>
<svg
   version="1.1"
   id="svg8"
   sodipodi:docname="matrix_int.svg"
   inkscape:version="1.3.2 (1:1.3.2+202404261509+091e20ef0f)"
   xmlns:inkscape="http://www.inkscape.org/namespaces/inkscape"
   xmlns:sodipodi="http://sodipodi.sourceforge.net/DTD/sodipodi-0.dtd"
   xmlns="http://www.w3.org/2000/svg"
   xmlns:svg="http://www.w3.org/2000/svg">
  <sodipodi:namedview
     id="namedview10"
     pagecolor="#ffffff"
     bordercolor="#000000"
     borderopacity="0.25"
     inkscape:showpageshadow="2"
     inkscape:pageopacity="0.0"
     inkscape:pagecheckerboard="0"
     inkscape:deskcolor="#d1d1d1"
     showgrid="false"
     inkscape:zoom="8.6266667"
     inkscape:cx="20.749614"
     inkscape:cy="14.547913"
     inkscape:window-width="1920"
     inkscape:window-height="1000"
     inkscape:window-x="1920"
     inkscape:window-y="0"
     inkscape:window-maximized="1"
     inkscape:current-layer="svg8" />
  <defs
     id="defs2" />
  <path
     d="m 18,-28 v 6 h 2 c 0.566666,0 1.066667,0.217058 1.5,0.650391 0.333333,0.366666 0.5,0.816276 0.5,1.349609 v 40 l -0.199219,0.949219 -0.351562,0.5 L 21.400391,21.5 20.949219,21.800781 20,22 h -2 v 6 h 2 c 2.166665,0 4.032944,-0.732554 5.599609,-2.199219 l 0.09961,-0.101562 0.101562,-0.09961 C 27.267446,24.032944 28,22.166665 28,20 v -40 c 0,-2.266664 -0.750002,-4.132944 -2.25,-5.599609 C 24.150002,-27.199608 22.233331,-28 20,-28 Z"
     style="fill:#ffffff"
     id="path2" />
  <path
     d="m -18,28 v -6 h -2 c -0.566666,0 -1.016276,-0.166667 -1.349609,-0.5 C -21.782942,21.066667 -22,20.566666 -22,20 v -40 c 0,-0.5 0.184115,-0.934115 0.550781,-1.300781 h 0.04883 l 0.09961,-0.09961 v -0.04883 C -20.934115,-21.815885 -20.5,-22 -20,-22 h 2 v -6 h -2 c -2.199998,0 -4.050783,0.782944 -5.550781,2.349609 l -0.04883,0.05078 -0.05078,0.04883 C -27.217056,-24.050783 -28,-22.199998 -28,-20 v 40 c 0,2.233331 0.800392,4.150002 2.400391,5.75 C -24.099611,27.249998 -22.233331,28 -20,28 Z"
     style="fill:#ffffff"
     id="path1" />
  <path
     style="color:#000000;fill:#ffffff;stroke-linecap:round;-inkscape-stroke:none"
     d="m -0.04882812,-20.640625 c -3.23032008,0 -6.21869978,0.892886 -8.49609378,2.8125 -2.2046711,1.827829 -3.7146821,4.413513 -4.6054691,7.457031 l -0.0059,0.01758 -0.0039,0.01563 c -0.835342,2.9781767 -1.216797,6.4041815 -1.216797,10.3144535 0,5.8654739 0.934798,10.7164355 3.144531,14.5156255 l 0.0078,0.01563 0.0098,0.01563 c 2.3275674,3.892655 6.4923677,6.117187 11.16601588,6.117187 3.26362462,0 6.27594762,-0.887491 8.56250002,-2.822266 2.1917871,-1.854589 3.6984031,-4.450338 4.5898441,-7.496093 l 0.002,-0.0039 v -0.0059 c 0.8707,-3.011172 1.271484,-6.4472458 1.271484,-10.3359375 0,-5.9043932 -0.966312,-10.7652575 -3.27539,-14.5253905 -0.001,-0.0017 -9.25e-4,-0.0042 -0.002,-0.0059 -2.3585601,-3.867934 -6.5050144,-6.085937 -11.14843712,-6.085937 z m 8.17773442,8.808594 0.013672,0.0293 c -0.0024,-0.0051 -0.00736,-0.0085 -0.00977,-0.01367 -0.00216,-0.0045 -0.00174,-0.01112 -0.00391,-0.01563 z m -8.17773442,0.792968 c 1.64749832,0 2.04611982,0.249873 2.75390622,1.7695317 l 0.00586,0.015625 0.00781,0.015625 c 0.782922,1.6329516 1.3847656,4.7825742 1.3847656,9.2148438 0,4.499509 -0.606461,7.6872257 -1.3847656,9.3105469 l -0.00391,0.00781 -0.00391,0.00781 c -0.7000567,1.4824726 -1.0997673,1.7363286 -2.75976562,1.7363286 -1.68407428,0 -2.09307438,-0.264153 -2.79101568,-1.757813 -0.7416711,-1.6512148 -1.3124999,-4.8374518 -1.3124999,-9.3046875 0,-4.4337664 0.5687456,-7.6020484 1.3124999,-9.2578125 0.6979413,-1.49366 1.1069414,-1.757813 2.79101568,-1.757813 z m 8.18554692,22.904297 -0.00781,0.01563 c 0.00108,-0.0022 8.753e-4,-0.0056 0.00195,-0.0078 0.00141,-0.003 0.00445,-0.0048 0.00586,-0.0078 z"
     id="text1" />
</svg>
