<?xml version="1.0" encoding="UTF-8" standalone="no"?>
<svg
   version="1.1"
   id="svg8"
   sodipodi:docname="matrix_float.svg"
   inkscape:version="1.3.2 (1:1.3.2+202404261509+091e20ef0f)"
   xmlns:inkscape="http://www.inkscape.org/namespaces/inkscape"
   xmlns:sodipodi="http://sodipodi.sourceforge.net/DTD/sodipodi-0.dtd"
   xmlns="http://www.w3.org/2000/svg"
   xmlns:svg="http://www.w3.org/2000/svg">
  <sodipodi:namedview
     id="namedview10"
     pagecolor="#ffffff"
     bordercolor="#000000"
     borderopacity="0.25"
     inkscape:showpageshadow="2"
     inkscape:pageopacity="0.0"
     inkscape:pagecheckerboard="0"
     inkscape:deskcolor="#d1d1d1"
     showgrid="false"
     inkscape:zoom="12.199949"
     inkscape:cx="9.590204"
     inkscape:cy="-6.0246153"
     inkscape:window-width="1920"
     inkscape:window-height="1000"
     inkscape:window-x="1920"
     inkscape:window-y="0"
     inkscape:window-maximized="1"
     inkscape:current-layer="svg8" />
  <defs
     id="defs2" />
  <path
     d="m 18,-28 v 6 h 2 c 0.566666,0 1.066667,0.217058 1.5,0.650391 0.333333,0.366666 0.5,0.816276 0.5,1.349609 v 40 l -0.199219,0.949219 -0.351562,0.5 L 21.400391,21.5 20.949219,21.800781 20,22 h -2 v 6 h 2 c 2.166665,0 4.032944,-0.732554 5.599609,-2.199219 l 0.09961,-0.101562 0.101562,-0.09961 C 27.267446,24.032944 28,22.166665 28,20 v -40 c 0,-2.266664 -0.750002,-4.132944 -2.25,-5.599609 C 24.150002,-27.199608 22.233331,-28 20,-28 Z"
     style="fill:#ffffff"
     id="path2" />
  <path
     d="m -18,28 v -6 h -2 c -0.566666,0 -1.016276,-0.166667 -1.349609,-0.5 C -21.782942,21.066667 -22,20.566666 -22,20 v -40 c 0,-0.5 0.184115,-0.934115 0.550781,-1.300781 h 0.04883 l 0.09961,-0.09961 v -0.04883 C -20.934115,-21.815885 -20.5,-22 -20,-22 h 2 v -6 h -2 c -2.199998,0 -4.050783,0.782944 -5.550781,2.349609 l -0.04883,0.05078 -0.05078,0.04883 C -27.217056,-24.050783 -28,-22.199998 -28,-20 v 40 c 0,2.233331 0.800392,4.150002 2.400391,5.75 C -24.099611,27.249998 -22.233331,28 -20,28 Z"
     style="fill:#ffffff"
     id="path1" />
  <path
     style="color:#000000;fill:#f9f9f9;stroke-linecap:round;-inkscape-stroke:none"
     d="m -12.052734,-12.009766 c -1.86678,0 -3.556335,0.508619 -4.841797,1.59375 -1.250143,1.0363219 -2.114303,2.5085359 -2.63086,4.2734379 l -0.002,0.00781 -0.002,0.00781 c -0.486401,1.7341257 -0.712891,3.7460016 -0.71289,6.05468748 0,3.45924292 0.55416,6.29154772 1.826171,8.47851562 l 0.0039,0.00781 0.0059,0.00781 c 1.332057,2.22775 3.661482,3.474609 6.353516,3.474609 1.885603,0 3.5854184,-0.508425 4.8749996,-1.599609 1.244362,-1.0529218 2.1080129,-2.5305025 2.625,-4.296875 V 5.99804 l 0.00195,-0.00391 c 0.5070903,-1.7536877 0.7421875,-3.7718352 0.7421874,-6.06640622 0,-3.48212088 -0.572899,-6.31571278 -1.9003906,-8.47656248 -1.3504759,-2.2165513 -3.6695533,-3.4609383 -6.3437494,-3.4609383 z m 24.048828,0 c -1.865158,0 -3.5528451,0.50861 -4.8378909,1.591797 -1.2512796,1.0364127 -2.1179183,2.509496 -2.6347656,4.2753909 l -0.00195,0.00781 -0.00195,0.00781 C 4.0331364,-4.3928324 3.8086,-2.3809565 3.8086001,-0.07227062 c 0,3.45924292 0.5541598,6.29154772 1.8261718,8.47851562 l 0.00391,0.00781 0.00391,0.00781 c 1.3320566,2.22775 3.6614812,3.474609 6.3535161,3.474609 1.885603,0 3.585419,-0.508425 4.875,-1.599609 C 18.115456,9.2439532 18.979107,7.7663726 19.496094,6 l 0.002,-0.00195 V 5.99414 c 0.50709,-1.7536876 0.74414,-3.7718352 0.74414,-6.06640622 0,-3.48212098 -0.574851,-6.31571278 -1.902343,-8.47656248 -1.350476,-2.2165513 -3.669554,-3.4609383 -6.34375,-3.4609383 z M -12.052734,-7 c 1.091529,0 1.497317,0.2598656 1.964843,1.2636719 l 0.0039,0.00586 0.0039,0.00781 c 0.507196,1.0578662 0.861328,2.9781011 0.861328,5.65039058 0,2.71200902 -0.3563353,4.65571362 -0.861328,5.70898432 l -0.002,0.00391 -0.002,0.00391 c -0.463838,0.9822447 -0.871256,1.2402344 -1.96875,1.2402344 -1.111657,0 -1.527172,-0.2645301 -1.990235,-1.2539062 -0.480274,-1.0656177 -0.816406,-3.0080685 -0.816406,-5.70312502 0,-2.67416278 0.335447,-4.60378788 0.816406,-5.67187498 C -13.579904,-6.7335287 -13.164396,-7 -12.052734,-7 Z m 24.048828,0 c 1.091529,0 1.499271,0.2598656 1.966797,1.2636719 l 0.002,0.00586 0.0039,0.00781 c 0.507196,1.0578663 0.861328,2.9781011 0.861328,5.65039058 0,2.71200902 -0.356335,4.65571352 -0.861328,5.70898432 l -0.002,0.00391 -0.002,0.00391 c -0.463838,0.9822447 -0.871257,1.2402344 -1.96875,1.2402344 -1.113563,0 -1.52621,-0.2642406 -1.990235,-1.2578125 C 9.5262136,4.5607723 9.1894531,2.6205907 9.1894531,-0.07226562 9.1894531,-2.7439525 9.5236635,-4.671537 10.003906,-5.7402344 10.468195,-6.7349569 10.88201,-7 11.996094,-7 Z M -0.02929688,5.2832031 c -0.7634739,0 -1.55252972,0.2648034 -2.14648442,0.7597656 -0.7882584,0.6568821 -1.03125,1.6514931 -1.03125,2.5898438 0,0.9257121 0.2540746,1.8990215 0.9960938,2.5585935 0.5895234,0.524021 1.39907974,0.81836 2.18164062,0.81836 0.78369709,0 1.59525858,-0.287754 2.19335938,-0.8125 0.7546125,-0.646503 1.0429688,-1.6323969 1.0429688,-2.5644535 0,-0.9443766 -0.2797046,-1.9539064 -1.078125,-2.5957031 C 1.5268443,5.5425431 0.73543771,5.2832031 -0.02929688,5.2832031 Z"
     id="text1"
     sodipodi:nodetypes="cccccscccsscccscccsccccscccsscccscssscccscccscscsscccscccscscsssssscscs" />
</svg>
