<?xml version="1.0" encoding="UTF-8" standalone="no"?>
<svg
   version="1.1"
   id="svg8"
   sodipodi:docname="matrix_bool.svg"
   inkscape:version="1.3.2 (1:1.3.2+202404261509+091e20ef0f)"
   xmlns:inkscape="http://www.inkscape.org/namespaces/inkscape"
   xmlns:sodipodi="http://sodipodi.sourceforge.net/DTD/sodipodi-0.dtd"
   xmlns="http://www.w3.org/2000/svg"
   xmlns:svg="http://www.w3.org/2000/svg">
  <sodipodi:namedview
     id="namedview10"
     pagecolor="#ffffff"
     bordercolor="#000000"
     borderopacity="0.25"
     inkscape:showpageshadow="2"
     inkscape:pageopacity="0.0"
     inkscape:pagecheckerboard="0"
     inkscape:deskcolor="#d1d1d1"
     showgrid="false"
     inkscape:zoom="8.6266667"
     inkscape:cx="20.749614"
     inkscape:cy="5.2743431"
     inkscape:window-width="1920"
     inkscape:window-height="1000"
     inkscape:window-x="1920"
     inkscape:window-y="0"
     inkscape:window-maximized="1"
     inkscape:current-layer="svg8" />
  <defs
     id="defs2" />
  <path
     d="m 18,-28 v 6 h 2 c 0.566666,0 1.066667,0.217058 1.5,0.650391 0.333333,0.366666 0.5,0.816276 0.5,1.349609 v 40 l -0.199219,0.949219 -0.351562,0.5 L 21.400391,21.5 20.949219,21.800781 20,22 h -2 v 6 h 2 c 2.166665,0 4.032944,-0.732554 5.599609,-2.199219 l 0.09961,-0.101562 0.101562,-0.09961 C 27.267446,24.032944 28,22.166665 28,20 v -40 c 0,-2.266664 -0.750002,-4.132944 -2.25,-5.599609 C 24.150002,-27.199608 22.233331,-28 20,-28 Z"
     style="fill:#ffffff"
     id="path2" />
  <path
     d="m -18,28 v -6 h -2 c -0.566666,0 -1.016276,-0.166667 -1.349609,-0.5 C -21.782942,21.066667 -22,20.566666 -22,20 v -40 c 0,-0.5 0.184115,-0.934115 0.550781,-1.300781 h 0.04883 l 0.09961,-0.09961 v -0.04883 C -20.934115,-21.815885 -20.5,-22 -20,-22 h 2 v -6 h -2 c -2.199998,0 -4.050783,0.782944 -5.550781,2.349609 l -0.04883,0.05078 -0.05078,0.04883 C -27.217056,-24.050783 -28,-22.199998 -28,-20 v 40 c 0,2.233331 0.800392,4.150002 2.400391,5.75 C -24.099611,27.249998 -22.233331,28 -20,28 Z"
     style="fill:#ffffff"
     id="path1" />
  <rect
     style="fill:none;fill-opacity:1;stroke:#f9f9f9;stroke-width:5;stroke-linecap:round;stroke-dasharray:none;stroke-opacity:1"
     id="rect1"
     width="32.03125"
     height="32.09375"
     x="-16.015625"
     y="-16.046875"
     ry="5.9103961" />
  <path
     style="fill:none;stroke:#ffffff;stroke-width:4;stroke-linecap:round;stroke-dasharray:none;stroke-opacity:1"
     d="m -6.842427,1.393765 5.023496,5.141 8.661358,-13.637663"
     id="path2535"
     sodipodi:nodetypes="ccc" />
</svg>
